<svg  xmlns="http://www.w3.org/2000/svg" xmlns:xlink="http://www.w3.org/1999/xlink" id="null"  width="320" height="109" viewBox="0 0 320 109">

<g transform="translate(0,109) scale(0.1,-0.1)"
fill="#7b0000" stroke="none">
<path d="M1445 949 c-4 -6 -4 -26 0 -45 6 -37 40 -62 68 -51 14 5 27 72 19 96
-5 14 -79 14 -87 0z"/>
<path d="M2133 902 c-70 -25 -117 -63 -142 -115 -21 -43 -28 -111 -13 -133 26
-40 102 -16 102 32 0 69 77 121 165 112 59 -7 93 -30 116 -81 17 -38 26 -97
14 -97 -2 0 -19 9 -37 20 -38 23 -78 25 -167 6 -80 -18 -126 -60 -171 -157
-31 -68 -32 -69 -70 -69 -20 0 -54 -7 -75 -16 -33 -13 -39 -14 -60 0 -34 22
-41 84 -20 171 22 92 36 242 24 272 -25 68 -79 23 -79 -66 0 -31 -7 -87 -15
-126 -8 -38 -17 -117 -21 -175 -5 -88 -4 -111 10 -138 9 -18 20 -32 24 -33 4
0 77 -2 162 -4 127 -3 163 -7 200 -24 95 -41 189 -37 298 15 38 18 57 22 66
15 8 -7 55 -8 132 -4 65 3 202 6 304 7 183 1 184 1 196 24 16 31 7 60 -24 80
-22 14 -55 17 -212 17 -187 0 -187 0 -181 35 0 5 30 46 66 90 36 45 77 99 91
121 13 22 41 57 60 79 63 69 51 148 -23 151 -69 4 -133 -4 -188 -23 -48 -16
-75 -19 -135 -15 -83 7 -94 3 -104 -31 -8 -23 -8 -23 -46 12 -52 47 -65 53
-135 60 -45 5 -73 2 -112 -12z m577 -145 c0 -13 -13 -42 -29 -63 -48 -63 -169
-190 -175 -183 -6 5 -28 121 -40 207 l-6 42 87 1 c49 0 97 4 108 9 37 16 55
12 55 -13z m-390 -252 c55 -28 45 -102 -16 -125 -36 -14 -158 -12 -172 2 -16
16 -15 80 1 100 26 35 138 48 187 23z"/>
<path d="M1053 900 c-15 -6 -23 -18 -23 -34 0 -19 -8 -27 -35 -36 -53 -18 -42
-74 17 -84 15 -2 32 -7 37 -10 19 -12 32 -116 38 -306 5 -178 7 -197 26 -217
43 -48 66 -22 78 89 9 78 28 128 49 128 19 0 71 -56 93 -100 26 -53 62 -76
101 -66 48 12 42 32 -33 115 -39 43 -71 85 -71 94 0 8 8 21 17 28 9 8 29 34
45 58 l28 45 0 -58 c0 -71 27 -196 47 -216 13 -13 16 -13 28 4 12 15 13 55 10
199 -6 221 -10 249 -38 245 -15 -2 -27 -17 -38 -47 -15 -40 -17 -42 -22 -20
-9 36 -64 97 -107 119 -21 10 -66 24 -101 29 -35 6 -76 20 -91 31 -15 11 -28
20 -30 19 -2 0 -13 -4 -25 -9z m227 -150 c28 -14 40 -27 41 -43 3 -68 -12
-104 -56 -133 -24 -15 -27 -15 -44 0 -9 9 -27 16 -39 16 -44 0 -57 90 -22 148
24 39 60 42 120 12z"/>
<path d="M1556 758 c-12 -18 -15 -72 -18 -253 -2 -126 1 -240 5 -252 9 -25 46
-39 143 -54 125 -18 129 -18 132 16 4 39 -17 67 -49 66 -143 -8 -153 -7 -167
21 -10 22 -11 60 -2 190 15 239 14 265 -10 278 -16 8 -22 6 -34 -12z"/>
<path d="M427 717 c-95 -38 -197 -113 -255 -188 -35 -45 -46 -69 -54 -120 -15
-89 1 -141 58 -196 62 -60 128 -78 252 -69 117 9 187 34 247 89 56 51 68 91
48 159 -11 39 -20 50 -59 72 -62 35 -108 42 -138 23 -13 -9 -59 -19 -102 -23
-101 -8 -124 -26 -124 -95 0 -52 8 -59 67 -59 29 0 42 7 67 36 30 34 34 36
101 37 l70 2 3 -33 c5 -46 -20 -80 -76 -105 -38 -17 -68 -21 -154 -21 -100 -1
-108 0 -133 24 -33 30 -55 71 -55 101 0 52 54 131 135 197 119 96 146 106 288
105 112 -2 118 -1 132 21 35 53 -10 76 -143 75 -84 0 -107 -5 -175 -32z"/>
<path d="M905 596 c-38 -17 -58 -40 -78 -94 -28 -70 -15 -173 24 -197 38 -24
187 10 214 48 19 27 19 107 1 151 -14 32 -98 106 -120 106 -6 -1 -24 -7 -41
-14z m98 -94 c41 -45 39 -119 -3 -142 -34 -18 -88 -12 -104 12 -24 33 -20 97
6 125 26 28 78 31 101 5z"/>
</g>
</svg>
